<svg width="100px" height="70px" xmlns="http://www.w3.org/2000/svg" viewBox="191.69249725341797 15.079997253417972 116.61500549316406 119.84000549316406" style="background: rgba(0, 0, 0, 0);" preserveAspectRatio="xMidYMid"><defs><linearGradient id="editing-gradient-gradient" x1="0" x2="1" y1="0.5" y2="0.5" gradientUnits="objectBoundingBox"><stop offset="0" stop-color="#ffffff"></stop><stop offset="1" stop-color="#ffffff"></stop></linearGradient></defs><g><g transform="translate(213.71000361442566, 98.01000022888184)"><path d="M15.42-15.42L15.42-0.90L15.42-0.90Q15.42 0.13 9.34 0.13L9.34 0.13L9.34 0.13Q3.20 0.13 3.20-0.83L3.20-0.83L3.20-42.56L3.20-42.56Q3.20-44.80 5.57-44.80L5.57-44.80L17.79-44.80L17.79-44.80Q34.62-44.80 34.62-31.68L34.62-31.68L34.62-31.68Q34.62-27.71 33.09-24.48L33.09-24.48L33.09-24.48Q31.55-21.25 28.74-19.33L28.74-19.33L36.80-5.89L36.80-5.89Q36.29-4.35 33.47-2.37L33.47-2.37L33.47-2.37Q29.63 0.38 27.14 0.38L27.14 0.38L27.14 0.38Q24.64 0.38 23.42-1.41L23.42-1.41L17.41-15.42L15.42-15.42ZM16.77-33.47L15.42-33.47L15.42-23.87L15.74-23.87L15.74-23.87Q21.82-23.87 21.82-28.93L21.82-28.93L21.82-28.93Q21.82-31.23 20.64-32.35L20.64-32.35L20.64-32.35Q19.46-33.47 16.77-33.47L16.77-33.47ZM40.96-2.75L40.96-44.61L40.96-44.61Q40.96-45.38 46.50-45.38L46.50-45.38L46.50-45.38Q52.03-45.38 52.03-44.54L52.03-44.54L52.03-32.13L52.03-32.13Q54.78-32.64 55.94-32.64L55.94-32.64L55.94-32.64Q69.38-32.64 69.38-17.22L69.38-17.22L69.38-17.22Q69.38-8.64 65.25-4L65.25-4L65.25-4Q61.12 0.64 53.54 0.64L53.54 0.64L53.54 0.64Q45.95 0.64 40.96-2.75L40.96-2.75ZM54.14-22.66L54.14-22.66L54.14-22.66Q53.06-22.66 52.03-21.95L52.03-21.95L52.03-9.73L52.03-9.73Q52.93-9.34 53.92-9.34L53.92-9.34L53.92-9.34Q54.91-9.34 55.94-10.11L55.94-10.11L55.94-10.11Q57.73-11.39 57.73-16.06L57.73-16.06L57.73-16.06Q57.73-22.66 54.14-22.66Z" fill="url(#editing-gradient-gradient)"></path></g></g><style>text {
  font-size: 74px;
  font-family: Arial Black;
  dominant-baseline: central;
  text-anchor: middle;
}</style></svg>